HIERARCHY
ROOT Hip
{
	OFFSET 0 1.131 0.0052
	CHANNELS 6 Xposition Yposition Zposition Xrotation Yrotation Zrotation
	JOINT Abdomen
	{
		OFFSET 0 -0.047353 -0.05
		CHANNELS 3 Xrotation Zrotation Yrotation
		JOINT Chest
		{
			OFFSET 0 0.132153 0.007439
			CHANNELS 3 Xrotation Zrotation Yrotation
			JOINT Neck
			{
				OFFSET 0 0.3078 0.006161
				CHANNELS 3 Xrotation Zrotation Yrotation
				JOINT Head_comp
				{
					OFFSET 0 0.0884 0.013
					CHANNELS 3 Xrotation Yrotation Zrotation
					End Site
					{
						OFFSET -0 0.156 0.0624
					}
				}
			}
			JOINT Left_Collar
			{
				OFFSET 0.02282 0.250342 0.017193
				CHANNELS 2 Yrotation Zrotation
				JOINT Left_Shoulder
				{
					OFFSET 0.15421 0 0
					CHANNELS 3 Xrotation Yrotation Zrotation
					JOINT Left_Forearm
					{
						OFFSET 0.265212 0 0
						CHANNELS 2 Yrotation Xrotation
						JOINT Left_Hand
						{
							OFFSET 0.27571 0 0
							CHANNELS 2 Zrotation Yrotation
							JOINT L1ProxPhalanx
							{
								OFFSET 0.014142 0.001733 0.014142
								CHANNELS 3 Yrotation Zrotation Xrotation
								JOINT L1MidPhalanx
								{
									OFFSET 0.04 0 0
									CHANNELS 1 Zrotation
									JOINT L1DistPhalanx
									{
										OFFSET 0.035 0 0
										CHANNELS 1 Zrotation
										End Site
										{
											OFFSET 0.029 -0 -0
										}
									}
								}
							}
							JOINT L2ProxPhalanx
							{
								OFFSET 0.0821037 0.001578 0.0219996
								CHANNELS 2 Yrotation Zrotation
								JOINT L2MidPhalanx
								{
									OFFSET 0.04 0 0
									CHANNELS 1 Zrotation
									JOINT L2DistPhalanx
									{
										OFFSET 0.028 0 0
										CHANNELS 1 Zrotation
										End Site
										{
											OFFSET 0.02 -0 -0
										}
									}
								}
							}
							JOINT L3ProxPhalanx
							{
								OFFSET 0.083 0 0
								CHANNELS 2 Yrotation Zrotation
								JOINT L3MidPhalanx
								{
									OFFSET 0.053 0 0
									CHANNELS 1 Zrotation
									JOINT L3DistPhalanx
									{
										OFFSET 0.03 0 0
										CHANNELS 1 Zrotation
										End Site
										{
											OFFSET 0.023 -0 -0
										}
									}
								}
							}
							JOINT L4ProxPhalanx
							{
								OFFSET 0.077274 -0.000761 -0.0207055
								CHANNELS 2 Yrotation Zrotation
								JOINT L4MidPhalanx
								{
									OFFSET 0.05 0 0
									CHANNELS 1 Zrotation
									JOINT L4DistPhalanx
									{
										OFFSET 0.03 0 0
										CHANNELS 1 Zrotation
										End Site
										{
											OFFSET 0.023 -0 -0
										}
									}
								}
							}
							JOINT L5ProxPhalanx
							{
								OFFSET 0.0675499 -0.001644 -0.039
								CHANNELS 2 Yrotation Zrotation
								JOINT L5MidPhalanx
								{
									OFFSET 0.04 0 0
									CHANNELS 1 Zrotation
									JOINT L5DistPhalanx
									{
										OFFSET 0.021 0 0
										CHANNELS 1 Zrotation
										End Site
										{
											OFFSET 0.022 -0 -0
										}
									}
								}
							}
						}
					}
				}
			}
			JOINT Right_Collar
			{
				OFFSET -0.02282 0.250342 0.017193
				CHANNELS 2 Yrotation Zrotation
				JOINT Right_Shoulder
				{
					OFFSET -0.15421 0 0
					CHANNELS 3 Xrotation Yrotation Zrotation
					JOINT Right_Forearm
					{
						OFFSET -0.265212 0 0
						CHANNELS 2 Yrotation Xrotation
						JOINT Right_Hand
						{
							OFFSET -0.27571 3e-006 0
							CHANNELS 2 Zrotation Yrotation
							JOINT R1ProxPhalanx
							{
								OFFSET -0.014142 0.001733 0.014142
								CHANNELS 3 Yrotation Zrotation Xrotation
								JOINT R1MidPhalanx
								{
									OFFSET -0.04 0 0
									CHANNELS 1 Zrotation
									JOINT R1DistPhalanx
									{
										OFFSET -0.035 0 0
										CHANNELS 1 Zrotation
										End Site
										{
											OFFSET -0.029 -0 -0
										}
									}
								}
							}
							JOINT R2ProxPhalanx
							{
								OFFSET -0.0821037 0.001578 0.0219996
								CHANNELS 2 Yrotation Zrotation
								JOINT R2MidPhalanx
								{
									OFFSET -0.04 0 0
									CHANNELS 1 Zrotation
									JOINT R2DistPhalanx
									{
										OFFSET -0.028 0 0
										CHANNELS 1 Zrotation
										End Site
										{
											OFFSET -0.02 -0 -0
										}
									}
								}
							}
							JOINT R3ProxPhalanx
							{
								OFFSET -0.083 0 0
								CHANNELS 2 Yrotation Zrotation
								JOINT R3MidPhalanx
								{
									OFFSET -0.053 0 0
									CHANNELS 1 Zrotation
									JOINT R3DistPhalanx
									{
										OFFSET -0.03 0 0
										CHANNELS 1 Zrotation
										End Site
										{
											OFFSET -0.023 -0 -0
										}
									}
								}
							}
							JOINT R4ProxPhalanx
							{
								OFFSET -0.077274 -0.000761 -0.0207055
								CHANNELS 2 Yrotation Zrotation
								JOINT R4MidPhalanx
								{
									OFFSET -0.05 0 0
									CHANNELS 1 Zrotation
									JOINT R4DistPhalanx
									{
										OFFSET -0.03 0 0
										CHANNELS 1 Zrotation
										End Site
										{
											OFFSET -0.023 -0 -0
										}
									}
								}
							}
							JOINT R5ProxPhalanx
							{
								OFFSET -0.0675499 -0.001644 -0.039
								CHANNELS 2 Yrotation Zrotation
								JOINT R5MidPhalanx
								{
									OFFSET -0.04 0 0
									CHANNELS 1 Zrotation
									JOINT R5DistPhalanx
									{
										OFFSET -0.021 0 0
										CHANNELS 1 Zrotation
										End Site
										{
											OFFSET -0.022 -0 -0
										}
									}
								}
							}
						}
					}
				}
			}
		}
	}
	JOINT Left_Thigh
	{
		OFFSET 0.1118 -0.1612 -0.0442
		CHANNELS 3 Xrotation Zrotation Yrotation
		JOINT Left_Shin
		{
			OFFSET 0 -0.477856 0
			CHANNELS 1 Xrotation
			JOINT Left_Foot
			{
				OFFSET 0 -0.431952 0
				CHANNELS 2 Xrotation Zrotation
				JOINT Left_Toe
				{
					OFFSET 0 -0.0442 0.119
					CHANNELS 1 Xrotation
					End Site
					{
						OFFSET -0 -0 0.07
					}
				}
			}
		}
	}
	JOINT Right_Thigh
	{
		OFFSET -0.1118 -0.1612 -0.0442
		CHANNELS 3 Xrotation Zrotation Yrotation
		JOINT Right_Shin
		{
			OFFSET 0 -0.477856 0
			CHANNELS 1 Xrotation
			JOINT Right_Foot
			{
				OFFSET 0 -0.431952 0
				CHANNELS 2 Xrotation Zrotation
				JOINT Right_Toe
				{
					OFFSET 0 -0.0442 0.119
					CHANNELS 1 Xrotation
					End Site
					{
						OFFSET -0 -0 0.07
					}
				}
			}
		}
	}
}
MOTION
Frames: 10
Frame Time: 0.009975
-0.0960255 -0.060167 0.0473373 -2.06945e-012 4.68352e-008 -5.10988e-006 0 0 0 0 0 0 0 0 0 0 0 0 0 0 -0 0 -0 0 0 0 0 -36.7832 -29.9624 77.4898 -4.76427 -12.2444 -6.63439 -16.4575 -31.3511 -13.5114 -0.647911 -24.507 -18.2419 -18.0941 9.02909 -22.0218 -38.2405 -19.3412 17.3445 -18.4185 -40.523 -37.4487 0 0 -0 0 -0 0 0 0 0 65.1363 58.3041 90.3744 9.91503 7.84494 7.94532 8.46602 18.9144 16.0775 1.38301 -0.802084 7.29398 3.49258 3.38824 -1.73532 9.32775 6.98923 -8.24778 -3.75746 37.2855 -33.6743 0.51373 -0.993457 -0.00890745 0.0240216 -0.537674 0.993502 0 0.525136 -0.993455 -0.00910522 0 -0.525057 0.993502 0 
-0.0960255 -0.060167 0.0473373 -2.06945e-012 4.68352e-008 -5.10988e-006 0 0 0 0 0 0 0 0 0 0 0 0 0 0 -0 0 -0 0 0 0 0 -36.7832 -29.9624 77.4898 -4.76427 -12.2444 -6.63439 -16.4575 -31.3511 -13.5114 -0.647911 -24.507 -18.2419 -18.0941 9.02909 -22.0218 -38.2405 -19.3412 17.3445 -18.4185 -40.523 -37.4487 0 0 -0 0 -0 0 0 0 0 65.1363 58.3041 90.3744 9.91503 7.84494 7.94532 8.46602 18.9144 16.0775 1.38301 -0.802084 7.29398 3.49258 3.38824 -1.73532 9.32775 6.98923 -8.24778 -3.75746 37.2855 -33.6743 0.51373 -0.993457 -0.00890745 0.0240216 -0.537674 0.993502 0 0.525136 -0.993455 -0.00910522 0 -0.525057 0.993502 0 
-0.101406 -0.0600603 0.0350573 -1.94262e-012 -2.21445e-008 -5.08406e-006 0 -0 0 0 -0 0 0 -0 0 -0.710021 0.29104 -9.062e-006 -6.15779 -11.6042 -19.178 -28.1905 -30.2579 -27.6674 17.9258 17.7479 -6.93751 -65.0919 -58.1347 90.3276 -10.0405 -7.90571 -7.911 -8.57357 -19.0199 -16.0722 -1.37628 0.638084 -7.45751 -3.56512 -3.36451 1.56676 -9.48111 -7.04428 8.23676 3.61869 -37.2691 33.4059 6.15779 11.6042 -19.178 28.1905 30.2579 27.6674 17.9258 -17.7479 6.93751 65.0919 58.1347 90.3276 10.0405 7.90571 7.911 8.57357 19.0199 16.0722 1.37628 -0.638084 7.45751 3.56512 3.36451 -1.56676 9.48111 7.04428 -8.23676 -3.61869 37.2691 -33.4059 -0.259661 -0.654591 0.002974 0.0239015 0.235743 0.654602 0 -0.248314 -0.654591 0.00284404 2.81749e-006 0.248295 0.654602 0 
-0.10135 -0.0600655 0.0340417 -1.95239e-012 -2.22558e-008 -5.10961e-006 0 -0 0 0 -0 0 0 -0 0 -0.711658 0.2907 -2.29534e-010 -6.18863 -11.6624 -18.9963 -28.3875 -29.3288 -28.1094 18.0141 17.837 -6.97209 -65.1363 -58.3041 90.3744 -9.91503 -7.84494 -7.94532 -8.46602 -18.9144 -16.0775 -1.38301 0.802084 -7.29398 -3.49258 -3.38824 1.73532 -9.32775 -6.98923 8.24778 3.75746 -37.2855 33.6743 6.18863 11.6624 -18.9963 28.3875 29.3288 28.1094 18.0141 -17.837 6.97209 65.1363 58.3041 90.3744 9.91503 7.84494 7.94532 8.46602 18.9144 16.0775 1.38301 -0.802084 7.29398 3.49258 3.38824 -1.73532 9.32775 6.98923 -8.24778 -3.75746 37.2855 -33.6743 -0.323682 -0.658113 0.00371787 0.0240216 0.299639 0.658128 0 -0.312276 -0.658113 0.00358687 1.71598e-006 0.312254 0.658128 0 
-0.10135 -0.0600656 0.034026 -7.73274e-013 -2.78911e-008 -5.10958e-006 0 -0 0 0 -0 0 0 -0 0 -0.711632 0.290678 -8.34596e-015 -6.18863 -11.6624 -18.9948 -28.3877 -29.3241 -28.1117 18.0141 17.837 -6.97209 -65.1363 -58.3041 90.3744 -9.91503 -7.84494 -7.94532 -8.46602 -18.9144 -16.0775 -1.38301 0.802084 -7.29398 -3.49258 -3.38824 1.73532 -9.32775 -6.98923 8.24778 3.75746 -37.2855 33.6743 6.18863 11.6624 -18.9948 28.3877 29.3241 28.1117 18.0141 -17.837 6.97209 65.1363 58.3041 90.3744 9.91503 7.84494 7.94532 8.46602 18.9144 16.0775 1.38301 -0.802084 7.29398 3.49258 3.38824 -1.73532 9.32775 6.98923 -8.24778 -3.75746 37.2855 -33.6743 -0.32467 -0.658117 0.00372924 0.0240216 0.300627 0.658133 0 -0.313264 -0.658118 0.00359824 1.70755e-006 0.313241 0.658133 0 
-0.10135 -0.0600656 0.0340258 -2.07691e-012 -2.79373e-008 -5.10958e-006 0 -0 0 0 -0 0 0 -0 0 -0.711632 0.290678 3.88256e-019 -6.18863 -11.6624 -18.9948 -28.3877 -29.3241 -28.1117 18.0141 17.837 -6.97209 -65.1363 -58.3041 90.3744 -9.91503 -7.84494 -7.94532 -8.46602 -18.9144 -16.0775 -1.38301 0.802084 -7.29398 -3.49258 -3.38824 1.73532 -9.32775 -6.98923 8.24778 3.75746 -37.2855 33.6743 6.18863 11.6624 -18.9948 28.3877 29.3241 28.1117 18.0141 -17.837 6.97209 65.1363 58.3041 90.3744 9.91503 7.84494 7.94532 8.46602 18.9144 16.0775 1.38301 -0.802084 7.29398 3.49258 3.38824 -1.73532 9.32775 6.98923 -8.24778 -3.75746 37.2855 -33.6743 -0.32468 -0.658117 0.00372936 0.0240216 0.300637 0.658133 0 -0.313276 -0.658118 0.00359837 2.41484e-006 0.313252 0.658133 0 
-0.10135 -0.0600656 0.0340258 1.22849e-012 -2.79378e-008 -5.10958e-006 0 -0 0 0 -0 0 0 -0 0 -0.711632 0.290677 -3.88256e-019 -6.18863 -11.6624 -18.9948 -28.3877 -29.3241 -28.1117 18.0141 17.837 -6.97209 -65.1363 -58.3041 90.3744 -9.91503 -7.84494 -7.94532 -8.46602 -18.9144 -16.0775 -1.38301 0.802084 -7.29398 -3.49258 -3.38824 1.73532 -9.32775 -6.98923 8.24778 3.75746 -37.2855 33.6743 6.18863 11.6624 -18.9948 28.3877 29.3241 28.1117 18.0141 -17.837 6.97209 65.1363 58.3041 90.3744 9.91503 7.84494 7.94532 8.46602 18.9144 16.0775 1.38301 -0.802084 7.29398 3.49258 3.38824 -1.73532 9.32775 6.98923 -8.24778 -3.75746 37.2855 -33.6743 -0.32468 -0.658117 0.00372936 0.0240216 0.300637 0.658133 0 -0.313274 -0.658118 0.00359835 2.83165e-006 0.313252 0.658133 0 
-0.10135 -0.0600656 0.0340258 -1.51397e-012 -2.79378e-008 -5.10959e-006 0 -0 0 0 -0 0 0 -0 0 -0.711632 0.290677 -0 -6.18863 -11.6624 -18.9948 -28.3877 -29.3241 -28.1117 18.0141 17.837 -6.97209 -65.1363 -58.3041 90.3744 -9.91503 -7.84494 -7.94532 -8.46602 -18.9144 -16.0775 -1.38301 0.802084 -7.29398 -3.49258 -3.38824 1.73532 -9.32775 -6.98923 8.24778 3.75746 -37.2855 33.6743 6.18863 11.6624 -18.9948 28.3877 29.3241 28.1117 18.0141 -17.837 6.97209 65.1363 58.3041 90.3744 9.91503 7.84494 7.94532 8.46602 18.9144 16.0775 1.38301 -0.802084 7.29398 3.49258 3.38824 -1.73532 9.32775 6.98923 -8.24778 -3.75746 37.2855 -33.6743 -0.32468 -0.658117 0.00372936 0.0240216 0.300637 0.658133 0 -0.313274 -0.658118 0.00359835 2.41484e-006 0.313251 0.658133 0 
-0.10135 -0.0600656 0.0340258 -1.46439e-012 -2.79378e-008 -5.10959e-006 0 -0 0 0 -0 0 0 -0 0 -0.711632 0.290677 -0 -6.18863 -11.6624 -18.9948 -28.3877 -29.3241 -28.1117 18.0141 17.837 -6.97209 -65.1363 -58.3041 90.3744 -9.91503 -7.84494 -7.94532 -8.46602 -18.9144 -16.0775 -1.38301 0.802084 -7.29398 -3.49258 -3.38824 1.73532 -9.32775 -6.98923 8.24778 3.75746 -37.2855 33.6743 6.18863 11.6624 -18.9948 28.3877 29.3241 28.1117 18.0141 -17.837 6.97209 65.1363 58.3041 90.3744 9.91503 7.84494 7.94532 8.46602 18.9144 16.0775 1.38301 -0.802084 7.29398 3.49258 3.38824 -1.73532 9.32775 6.98923 -8.24778 -3.75746 37.2855 -33.6743 -0.32468 -0.658117 0.00372936 0.0240216 0.300637 0.658133 0 -0.313276 -0.658118 0.00359837 5.66329e-008 0.313252 0.658133 0 
-0.10135 -0.0600656 0.0340258 -1.84411e-012 -2.79378e-008 -5.10958e-006 0 -0 0 0 -0 0 0 -0 0 -0.711632 0.290677 -3.88256e-019 -6.18863 -11.6624 -18.9948 -28.3877 -29.3241 -28.1117 18.0141 17.837 -6.97209 -65.1363 -58.3041 90.3744 -9.91503 -7.84494 -7.94532 -8.46602 -18.9144 -16.0775 -1.38301 0.802084 -7.29398 -3.49258 -3.38824 1.73532 -9.32775 -6.98923 8.24778 3.75746 -37.2855 33.6743 6.18863 11.6624 -18.9948 28.3877 29.3241 28.1117 18.0141 -17.837 6.97209 65.1363 58.3041 90.3744 9.91503 7.84494 7.94532 8.46602 18.9144 16.0775 1.38301 -0.802084 7.29398 3.49258 3.38824 -1.73532 9.32775 6.98923 -8.24778 -3.75746 37.2855 -33.6743 -0.32468 -0.658117 0.00372936 0.0240216 0.300637 0.658133 0 -0.313274 -0.658118 0.00359835 0 0.313254 0.658133 0 
